# File created by Blade
# Date/Time:  Thu Jan 22 19:13:14 2015
# Frame Rate: 120.000 fps
#------------------------------------------------------
:FULLY-SPECIFIED
:DEGREES
2017
root 3.687527 27.463005 -4.766364 25.629868 -43.996215 13.089509
RightUpLeg -86.545035 -25.200605 0.224817
RightLeg 55.398841 -0.000000 -0.000000
RightFoot -10.722509 -0.476083 4.031616
RightToeBase 3.212801 -0.000000 -0.000000
LeftUpLeg -11.293033 28.083629 9.508008
LeftLeg 6.036564 -0.000000 -0.000000
LeftFoot -17.700221 -0.999752 -41.386924
LeftToeBase 10.844371 -0.000000 -0.000000
Spine -1.134322 -22.154373 5.558264
RightShoulder -24.226990 -19.934103 -13.414862
RightArm 6.183433 31.394008 67.668230
RightForeArm 11.335882 -0.000000 50.237844
RightHand 16.730115 -0.000000 -2.967400
RightHandThumb1 -24.326973 -0.000000 -32.862282
LeftShoulder -17.804376 4.331351 26.308896
LeftArm 20.254918 -13.165891 -50.082555
LeftForeArm 12.263646 -0.000000 32.432879
LeftHand -0.405250 -0.000000 -0.866737
LeftHandThumb1 -26.253704 0.000000 33.147579
Head -5.167618 -4.586625 -0.085619
2018
root 3.667316 27.446581 -4.783967 25.775399 -44.279696 12.929024
RightUpLeg -86.715246 -24.919944 0.445768
RightLeg 55.430569 -0.000000 -0.000000
RightFoot -10.680260 -0.388068 3.811294
RightToeBase 3.184517 -0.000000 -0.000000
LeftUpLeg -11.163070 28.242480 9.618435
LeftLeg 5.981496 -0.000000 -0.000000
LeftFoot -17.788748 -0.975314 -41.604716
LeftToeBase 10.930106 -0.000000 -0.000000
Spine -1.025340 -22.439298 5.409865
RightShoulder -24.296372 -19.976061 -13.455558
RightArm 5.834119 31.519874 67.495838
RightForeArm 11.186301 -0.000000 50.670771
RightHand 16.570409 -0.000000 -3.460227
RightHandThumb1 -24.326973 -0.000000 -32.862282
LeftShoulder -17.695763 4.436503 26.164527
LeftArm 20.674519 -12.024808 -50.129337
LeftForeArm 12.489521 -0.000000 33.529818
LeftHand -0.478213 -0.000000 -0.924211
LeftHandThumb1 -26.253704 0.000000 33.147579
Head -5.076444 -4.796518 -0.053196
2019
root 3.645844 27.430328 -4.805225 25.954481 -44.567976 12.727092
RightUpLeg -86.870168 -24.612030 0.678607
RightLeg 55.439543 -0.000000 -0.000000
RightFoot -10.648575 -0.350904 3.597993
RightToeBase 3.185375 -0.000000 -0.000000
LeftUpLeg -11.027088 28.329839 9.778587
LeftLeg 5.942804 -0.000000 -0.000000
LeftFoot -17.927898 -0.911607 -41.809046
LeftToeBase 10.938488 -0.000000 -0.000000
Spine -0.910024 -22.733366 5.302237
RightShoulder -24.361033 -20.086349 -13.464024
RightArm 5.649910 31.736519 67.414247
RightForeArm 11.149048 -0.000000 51.066924
RightHand 16.532721 -0.000000 -3.411776
RightHandThumb1 -24.326973 -0.000000 -32.862282
LeftShoulder -17.621499 4.468431 26.016637
LeftArm 21.012102 -10.906628 -50.158623
LeftForeArm 12.618621 0.000000 34.732845
LeftHand -0.719681 -0.000000 -0.927114
LeftHandThumb1 -26.253704 0.000000 33.147579
Head -5.026630 -4.913166 -0.051223
2020
root 3.626290 27.417529 -4.823858 26.127353 -44.832188 12.540056
RightUpLeg -87.019523 -24.356388 0.933523
RightLeg 55.424463 -0.000000 -0.000000
RightFoot -10.614801 -0.251581 3.440787
RightToeBase 3.135673 -0.000000 -0.000000
LeftUpLeg -10.938284 28.450099 9.903426
LeftLeg 5.945112 -0.000000 -0.000000
LeftFoot -18.060002 -0.844330 -41.972127
LeftToeBase 10.948677 -0.000000 -0.000000
Spine -0.779962 -23.035557 5.198771
RightShoulder -24.352762 -20.104494 -13.473220
RightArm 5.327077 31.937297 67.224035
RightForeArm 11.293157 -0.000000 51.448516
RightHand 16.660388 0.000000 -3.363493
RightHandThumb1 -24.326973 -0.000000 -32.862282
LeftShoulder -17.517918 4.497626 25.916733
LeftArm 21.303207 -9.870993 -50.279071
LeftForeArm 12.993655 -0.000000 35.991700
LeftHand -0.733630 -0.000000 -1.034345
LeftHandThumb1 -26.253704 0.000000 33.147579
Head -4.982459 -5.067450 -0.045374
2021
root 3.606756 27.404992 -4.845823 26.334287 -45.076521 12.330347
RightUpLeg -87.191495 -24.116872 1.231496
RightLeg 55.410692 -0.000000 -0.000000
RightFoot -10.568293 -0.140533 3.230677
RightToeBase 3.086811 -0.000000 -0.000000
LeftUpLeg -10.875705 28.500731 10.060746
LeftLeg 5.967579 -0.000000 -0.000000
LeftFoot -18.212576 -0.758891 -42.082791
LeftToeBase 10.919982 -0.000000 -0.000000
Spine -0.676915 -23.309438 5.148275
RightShoulder -24.366267 -20.139930 -13.516191
RightArm 5.023212 32.192332 67.119691
RightForeArm 11.197345 0.000000 51.846658
RightHand 16.116074 -0.000000 -3.896264
RightHandThumb1 -24.326973 -0.000000 -32.862282
LeftShoulder -17.415242 4.523761 25.787531
LeftArm 21.678498 -8.845726 -50.381146
LeftForeArm 13.306560 -0.000000 37.171975
LeftHand -0.838732 -0.000000 -1.104247
LeftHandThumb1 -26.253704 0.000000 33.147579
Head -4.920205 -5.194064 -0.101988
2022
root 3.584655 27.392398 -4.868362 26.578023 -45.325141 12.102006
RightUpLeg -87.373799 -23.853707 1.519862
RightLeg 55.403792 -0.000000 -0.000000
RightFoot -10.524529 -0.011040 3.108499
RightToeBase 3.093235 -0.000000 -0.000000
LeftUpLeg -10.851313 28.634767 10.189685
LeftLeg 5.998232 -0.000000 -0.000000
LeftFoot -18.390053 -0.689706 -42.246916
LeftToeBase 11.022010 -0.000000 -0.000000
Spine -0.580402 -23.577191 5.114274
RightShoulder -24.394645 -20.151750 -13.535029
RightArm 4.788106 32.398651 66.985007
RightForeArm 11.242848 -0.000000 52.130195
RightHand 16.198643 -0.000000 -4.016769
RightHandThumb1 -24.326973 -0.000000 -32.862282
LeftShoulder -17.363979 4.502946 25.658039
LeftArm 22.046751 -7.790272 -50.453433
LeftForeArm 13.646508 0.000000 38.342592
LeftHand -0.976958 -0.000000 -1.323818
LeftHandThumb1 -26.253704 0.000000 33.147579
Head -4.907022 -5.360460 -0.121186
2023
root 3.565551 27.382114 -4.889311 26.774980 -45.598921 11.904218
RightUpLeg -87.536557 -23.599134 1.793941
RightLeg 55.376780 -0.000000 -0.000000
RightFoot -10.452328 0.143737 2.911528
RightToeBase 3.058248 -0.000000 -0.000000
LeftUpLeg -10.795397 28.814226 10.300343
LeftLeg 6.031909 -0.000000 -0.000000
LeftFoot -18.488665 -0.660397 -42.332304
LeftToeBase 11.067592 -0.000000 -0.000000
Spine -0.428233 -23.780956 5.037654
RightShoulder -24.483502 -20.194097 -13.497907
RightArm 4.629958 32.676024 66.928356
RightForeArm 11.179264 -0.000000 52.460320
RightHand 16.250356 0.000000 -3.827888
RightHandThumb1 -24.326973 -0.000000 -32.862282
LeftShoulder -17.248038 4.436254 25.550683
LeftArm 22.414944 -6.725641 -50.508369
LeftForeArm 13.950443 -0.000000 39.457480
LeftHand -1.146294 -0.000000 -1.263625
LeftHandThumb1 -26.253704 0.000000 33.147579
Head -4.911183 -5.556686 -0.157625
2024
root 3.543929 27.372537 -4.914756 27.047202 -45.816785 11.663356
RightUpLeg -87.709755 -23.346161 2.087102
RightLeg 55.341944 -0.000000 -0.000000
RightFoot -10.408694 0.260426 2.813640
RightToeBase 3.091332 -0.000000 -0.000000
LeftUpLeg -10.821683 28.987307 10.448157
LeftLeg 6.109050 -0.000000 -0.000000
LeftFoot -18.549514 -0.699001 -42.418486
LeftToeBase 10.994174 -0.000000 -0.000000
Spine -0.333199 -24.007666 5.016634
RightShoulder -24.561988 -20.299868 -13.442431
RightArm 4.567540 32.850316 66.868872
RightForeArm 11.203001 -0.000000 52.636961
RightHand 16.478925 -0.000000 -3.803737
RightHandThumb1 -24.326973 -0.000000 -32.862282
LeftShoulder -17.052096 4.333500 25.504078
LeftArm 22.612064 -5.903383 -50.708652
LeftForeArm 14.365240 -0.000000 40.725319
LeftHand -1.309614 -0.000000 -1.730931
LeftHandThumb1 -26.253704 0.000000 33.147579
Head -4.873780 -5.674558 -0.133240
2025
root 3.523023 27.362535 -4.940587 27.315704 -46.072322 11.407178
RightUpLeg -87.878646 -23.068645 2.403983
RightLeg 55.279964 -0.000000 -0.000000
RightFoot -10.338628 0.330027 2.708081
RightToeBase 3.091972 -0.000000 -0.000000
LeftUpLeg -10.824842 29.209817 10.590557
LeftLeg 6.190772 -0.000000 -0.000000
LeftFoot -18.637846 -0.732695 -42.450470
LeftToeBase 11.007165 -0.000000 -0.000000
Spine -0.197228 -24.211095 4.988219
RightShoulder -24.566416 -20.321823 -13.452992
RightArm 4.322297 32.906074 66.731583
RightForeArm 11.343023 -0.000000 52.929880
RightHand 16.493740 -0.000000 -3.882655
RightHandThumb1 -24.326973 -0.000000 -32.862282
LeftShoulder -16.945485 4.321394 25.397062
LeftArm 23.029701 -5.005528 -50.795874
LeftForeArm 14.442958 -0.000000 41.759920
LeftHand -1.353047 -0.000000 -2.032205
LeftHandThumb1 -26.253704 0.000000 33.147579
Head -4.868951 -5.829064 -0.155225
2026
root 3.501926 27.352753 -4.965866 27.571674 -46.359292 11.135427
RightUpLeg -88.004743 -22.751292 2.675346
RightLeg 55.239015 -0.000000 -0.000000
RightFoot -10.303839 0.504729 2.638339
RightToeBase 3.226581 -0.000000 -0.000000
LeftUpLeg -10.790681 29.467335 10.742028
LeftLeg 6.284818 -0.000000 -0.000000
LeftFoot -18.739012 -0.753025 -42.386356
LeftToeBase 10.970982 -0.000000 -0.000000
Spine -0.012006 -24.336009 4.910897
RightShoulder -24.661716 -20.376083 -13.372406
RightArm 4.241145 32.956625 66.628988
RightForeArm 11.355353 -0.000000 53.098715
RightHand 16.523216 -0.000000 -3.989792
RightHandThumb1 -24.326973 -0.000000 -32.862282
LeftShoulder -16.732234 4.204016 25.363858
LeftArm 23.285103 -4.114438 -50.898658
LeftForeArm 14.708849 -0.000000 42.891817
LeftHand -1.111774 -0.000000 -2.340519
LeftHandThumb1 -26.253704 0.000000 33.147579
Head -4.853136 -6.003475 -0.116771
2027
root 3.477444 27.341663 -4.995163 27.847857 -46.628594 10.819311
RightUpLeg -88.108583 -22.440535 3.001489
RightLeg 55.169632 -0.000000 -0.000000
RightFoot -10.257882 0.640828 2.515277
RightToeBase 3.163394 -0.000000 -0.000000
LeftUpLeg -10.753612 29.681466 10.949675
LeftLeg 6.413260 -0.000000 -0.000000
LeftFoot -18.890111 -0.761041 -42.286826
LeftToeBase 10.894712 -0.000000 -0.000000
Spine 0.181921 -24.531400 4.865512
RightShoulder -24.646846 -20.362193 -13.389879
RightArm 4.114539 33.032011 66.592644
RightForeArm 11.251992 -0.000000 53.256119
RightHand 16.730668 -0.000000 -4.073253
RightHandThumb1 -24.326973 -0.000000 -32.862282
LeftShoulder -16.550252 4.158709 25.321075
LeftArm 23.552806 -3.245243 -50.963569
LeftForeArm 14.835005 -0.000000 43.985337
LeftHand -1.317725 -0.000000 -2.587766
LeftHandThumb1 -26.253704 0.000000 33.147579
Head -4.811685 -6.067698 -0.113195
2028
root 3.455467 27.331872 -5.022136 28.126873 -46.884919 10.522802
RightUpLeg -88.211358 -22.155444 3.301129
RightLeg 55.097161 -0.000000 -0.000000
RightFoot -10.260433 0.765937 2.500158
RightToeBase 3.372421 -0.000000 -0.000000
LeftUpLeg -10.748414 29.960760 11.114670
LeftLeg 6.536794 -0.000000 -0.000000
LeftFoot -19.004405 -0.803680 -42.041328
LeftToeBase 10.830058 -0.000000 -0.000000
Spine 0.369625 -24.717821 4.837473
RightShoulder -24.651686 -20.364258 -13.368746
RightArm 3.929177 32.996135 66.455397
RightForeArm 11.380419 -0.000000 53.503940
RightHand 16.727854 -0.000000 -4.090021
RightHandThumb1 -24.326973 -0.000000 -32.862282
LeftShoulder -16.381432 4.056261 25.307678
LeftArm 23.857389 -2.291226 -51.025502
LeftForeArm 14.913227 -0.000000 44.939957
LeftHand -1.278104 0.000000 -2.599074
LeftHandThumb1 -26.253704 0.000000 33.147579
Head -4.797221 -6.188610 -0.094487
